static_grf.mot
version=1
nRows=30
nColumns 19
inDegrees=yes
endheader
time	1_ground_force_vx	1_ground_force_vy	1_ground_force_vz	1_ground_force_px	1_ground_force_py	1_ground_force_pz	1_ground_torque_x	1_ground_torque_y	1_ground_torque_z	2_ground_force_vx	2_ground_force_vy	2_ground_force_vz	2_ground_force_px	2_ground_force_py	2_ground_force_pz	2_ground_torque_x	2_ground_torque_y	2_ground_torque_z
            0.945000	           -5.011531	          412.658872	          -47.652189	           -0.267920	            0.006232	           -0.408924	           -0.066970	            5.514474	           -0.636789	            3.325127	          473.471882	           50.962332	           -0.278212	            0.005418	           -0.680609	           -0.030512	           -4.344715	           -0.467645
            0.945500	           -5.103020	          411.577260	          -47.656599	           -0.268085	            0.006235	           -0.409649	           -0.067451	            5.440141	           -0.629915	            3.370648	          473.840333	           50.963626	           -0.278477	            0.005419	           -0.680929	           -0.031509	           -4.429448	           -0.476407
            0.946000	           -4.965622	          412.298350	          -47.653849	           -0.268057	            0.006234	           -0.409328	           -0.065555	            5.443102	           -0.629119	            3.370004	          474.024306	           51.011211	           -0.278549	            0.005418	           -0.680908	           -0.031129	           -4.378583	           -0.471193
            0.946500	           -5.103250	          412.839151	          -47.651189	           -0.268154	            0.006232	           -0.408994	           -0.067674	            5.474604	           -0.631896	            3.136439	          473.839152	           51.057582	           -0.278488	            0.005418	           -0.680804	           -0.028931	           -4.370810	           -0.470968
            0.947000	           -5.286490	          412.118052	          -47.653825	           -0.268102	            0.006234	           -0.409452	           -0.069919	            5.450651	           -0.630267	            3.276386	          474.023298	           51.198964	           -0.278261	            0.005419	           -0.680986	           -0.030451	           -4.405569	           -0.475843
            0.947500	           -5.332252	          412.298082	          -47.607087	           -0.268043	            0.006233	           -0.409108	           -0.070725	            5.468560	           -0.631442	            3.415545	          474.392589	           51.059434	           -0.278216	            0.005420	           -0.680989	           -0.032151	           -4.465543	           -0.480632
            0.948000	           -5.056592	          412.116917	          -47.379259	           -0.268173	            0.006234	           -0.409416	           -0.067127	            5.470910	           -0.628966	            3.182563	          474.023964	           50.917435	           -0.278243	            0.005419	           -0.680784	           -0.029079	           -4.331174	           -0.465234
            0.948500	           -5.194445	          411.396614	          -47.565433	           -0.268249	            0.006235	           -0.409619	           -0.068691	            5.440264	           -0.629000	            3.230680	          473.656354	           50.775317	           -0.278514	            0.005418	           -0.680786	           -0.029702	           -4.354619	           -0.466809
            0.949000	           -5.011564	          412.839168	          -47.651416	           -0.268094	            0.006233	           -0.409083	           -0.066700	            5.494548	           -0.634201	            3.088760	          474.024463	           50.682834	           -0.278332	            0.005419	           -0.681059	           -0.028078	           -4.309108	           -0.460731
            0.949500	           -5.012181	          412.479817	          -47.928098	           -0.268201	            0.006233	           -0.409110	           -0.066945	            5.509294	           -0.640153	            3.230098	          473.839825	           50.963686	           -0.278413	            0.005418	           -0.680845	           -0.029708	           -4.358003	           -0.468724
            0.950000	           -5.011888	          412.118892	          -47.837932	           -0.268323	            0.006233	           -0.409144	           -0.067033	            5.512015	           -0.639824	            3.181254	          474.392078	           50.965677	           -0.278209	            0.005420	           -0.680982	           -0.028978	           -4.321260	           -0.464249
            0.950500	           -5.012100	          412.659855	          -47.881473	           -0.268275	            0.006233	           -0.409038	           -0.067057	            5.521002	           -0.640609	            3.416771	          474.025145	           50.823479	           -0.278414	            0.005419	           -0.680871	           -0.032185	           -4.465131	           -0.478737
            0.951000	           -5.148896	          411.757548	          -47.655713	           -0.268330	            0.006234	           -0.409356	           -0.068803	            5.502161	           -0.636805	            3.181234	          474.392246	           50.918749	           -0.278317	            0.005420	           -0.681141	           -0.029374	           -4.380298	           -0.470158
            0.951500	           -5.057926	          411.938980	          -47.930303	           -0.268027	            0.006234	           -0.409451	           -0.067431	            5.491876	           -0.638996	            3.277654	          473.655519	           51.056865	           -0.278376	            0.005418	           -0.680590	           -0.030560	           -4.416187	           -0.476035
            0.952000	           -4.919714	          411.937827	          -47.655509	           -0.268161	            0.006234	           -0.409372	           -0.065481	            5.482861	           -0.634291	            3.556718	          474.209291	           50.964861	           -0.278326	            0.005420	           -0.681130	           -0.033090	           -4.411800	           -0.474151
            0.952500	           -5.102744	          411.937202	          -47.517490	           -0.268009	            0.006235	           -0.409591	           -0.067630	            5.459648	           -0.629777	            3.042678	          473.839316	           50.916838	           -0.278336	            0.005419	           -0.681000	           -0.027939	           -4.351030	           -0.467544
            0.953000	           -5.286409	          412.298091	          -47.607200	           -0.268216	            0.006233	           -0.409152	           -0.070314	            5.483964	           -0.633222	            3.090877	          473.471036	           50.962432	           -0.278322	            0.005418	           -0.680764	           -0.028653	           -4.389126	           -0.472427
            0.953500	           -5.195095	          411.217498	          -47.841341	           -0.268374	            0.006236	           -0.409762	           -0.069504	            5.501589	           -0.640059	            3.228084	          474.392415	           50.918729	           -0.278327	            0.005419	           -0.681022	           -0.029477	           -4.331851	           -0.464958
            0.954000	           -5.149123	          411.757941	          -47.747424	           -0.268295	            0.006234	           -0.409455	           -0.068239	            5.456880	           -0.632779	            3.601554	          474.762049	           50.919884	           -0.278467	            0.005419	           -0.681190	           -0.033699	           -4.442268	           -0.476449
            0.954500	           -5.103298	          412.478816	          -47.698594	           -0.268281	            0.006232	           -0.408905	           -0.067379	            5.445935	           -0.629762	            3.603465	          474.210297	           50.730200	           -0.278489	            0.005418	           -0.680893	           -0.033567	           -4.417354	           -0.472561
            0.955000	           -5.149156	          411.938176	          -47.746652	           -0.268283	            0.006234	           -0.409296	           -0.068097	            5.447828	           -0.631443	            3.323195	          474.023802	           51.105088	           -0.278388	            0.005419	           -0.680867	           -0.030689	           -4.377489	           -0.471942
            0.955500	           -5.057632	          411.578056	          -47.840137	           -0.268512	            0.006234	           -0.409393	           -0.067633	            5.503816	           -0.639741	            3.416107	          474.209285	           50.824136	           -0.278295	            0.005419	           -0.680849	           -0.031580	           -4.383802	           -0.469841
            0.956000	           -5.056916	          411.396641	          -47.565774	           -0.268531	            0.006235	           -0.409616	           -0.067873	            5.521716	           -0.638422	            3.322010	          474.390912	           51.434898	           -0.278547	            0.005419	           -0.681025	           -0.030611	           -4.371374	           -0.473958
            0.956500	           -5.194400	          413.018385	          -47.420912	           -0.268033	            0.006232	           -0.408905	           -0.068272	            5.428491	           -0.623275	            3.183269	          473.839489	           51.010634	           -0.278330	            0.005419	           -0.680924	           -0.029341	           -4.367457	           -0.470173
            0.957000	           -5.011154	          411.216550	          -47.612521	           -0.268183	            0.006234	           -0.409413	           -0.066859	            5.486507	           -0.635253	            3.323736	          473.840666	           50.822862	           -0.278410	            0.005418	           -0.680729	           -0.030759	           -4.385151	           -0.470339
            0.957500	           -5.011334	          411.577278	          -47.656827	           -0.268293	            0.006234	           -0.409373	           -0.066666	            5.475230	           -0.633981	            3.226775	          474.760529	           50.966971	           -0.278396	            0.005419	           -0.680865	           -0.029871	           -4.394901	           -0.471806
            0.958000	           -4.965230	          411.396659	          -47.566002	           -0.268434	            0.006234	           -0.409430	           -0.066433	            5.504314	           -0.636413	            3.462271	          474.393763	           50.777845	           -0.278398	            0.005419	           -0.680988	           -0.031993	           -4.383669	           -0.469216
            0.958500	           -5.011271	          412.478244	          -47.561250	           -0.268045	            0.006233	           -0.409208	           -0.066342	            5.460578	           -0.629638	            3.275722	          474.207439	           51.199621	           -0.278494	            0.005418	           -0.680727	           -0.030064	           -4.352223	           -0.469904
            0.959000	           -5.010926	          411.216157	          -47.520809	           -0.268271	            0.006236	           -0.409815	           -0.067184	            5.513392	           -0.637137	            3.463621	          474.025314	           50.823459	           -0.278508	            0.005419	           -0.681068	           -0.032152	           -4.400275	           -0.471783
            0.959500	           -5.011121	          411.036315	          -47.613294	           -0.268230	            0.006235	           -0.409710	           -0.067463	            5.533615	           -0.640998	            3.368736	          474.392085	           51.153310	           -0.278421	            0.005419	           -0.680948	           -0.031429	           -4.425824	           -0.477233
